<svg width="175" height="175" viewBox="0 0 175 175" fill="none" xmlns="http://www.w3.org/2000/svg">
<g clip-path="url(#clip0)">
<path d="M160.749 47.9196C159.05 48.7419 158.339 50.7859 159.161 52.4849C164.471 63.459 167.164 75.2394 167.164 87.5004C167.164 131.979 130.978 168.165 86.4999 168.165C69.0651 168.165 51.9996 162.436 38.0871 151.977C39.904 148.166 39.2389 143.457 36.0872 140.306C32.0892 136.308 25.5841 136.308 21.5858 140.306C17.5878 144.304 17.5878 150.809 21.5858 154.807C24.6787 157.9 29.3384 158.642 33.1912 156.839C48.425 168.565 67.2546 175 86.4999 175C134.748 175 174 135.748 174 87.5004C174 74.1997 171.078 61.4171 165.314 49.5076C164.492 47.8085 162.449 47.0975 160.749 47.9196Z" fill="#3A8BD6"/>
<path d="M11.3901 125.428C13.1073 124.644 13.8634 122.616 13.079 120.899C8.27261 110.377 5.83594 99.1402 5.83594 87.5C5.83594 43.0216 42.0216 6.83594 86.5 6.83594C103.661 6.83594 119.898 12.1088 133.693 22.1187C131.295 26.0637 131.797 31.2888 135.203 34.6951C139.202 38.6931 145.706 38.6931 149.705 34.6951C153.703 30.6971 153.703 24.192 149.705 20.1937C146.876 17.3646 142.792 16.5406 139.229 17.715C124.051 6.21626 105.663 0 86.5 0C38.2523 0 -1 39.2523 -1 87.5C-1 100.127 1.64482 112.32 6.86099 123.739C7.64131 125.448 9.66475 126.216 11.3901 125.428V125.428Z" fill="#3A8BD6"/>
<path d="M86.5 22.5586C53.0702 22.5586 21.5586 49.1114 21.5586 87.5C21.5586 123.057 50.4401 152.441 86.5 152.441C122.553 152.441 151.441 123.075 151.441 87.5C151.441 51.9425 122.56 22.5586 86.5 22.5586ZM68.2057 32.3477C61.1424 40.7439 56.8679 52.7273 54.6558 63.5742H33.5516C40.2057 48.9074 52.7804 37.4777 68.2057 32.3477ZM28.3945 87.5C28.3945 81.5548 29.2938 75.8157 30.9607 70.4102L53.4848 70.4067C52.7171 75.9083 52.3203 81.6484 52.3203 87.5C52.3203 93.3516 52.7171 99.0883 53.4848 104.59H30.9607C29.2938 99.1843 28.3945 93.4452 28.3945 87.5V87.5ZM33.5519 111.426H54.6562C56.8676 122.27 61.1418 134.255 68.206 142.652C52.7804 137.522 40.2057 126.093 33.5519 111.426ZM83.082 145.131C73.6758 142.508 65.5913 129.255 61.6753 111.426H83.082V145.131ZM83.082 104.59H60.4144C59.5982 99.1618 59.1562 93.4172 59.1562 87.5C59.1562 81.5828 59.5985 75.8382 60.4144 70.4102H83.082V104.59ZM83.082 63.5742H61.6753C65.5913 45.7447 73.6758 32.4916 83.082 29.8693V63.5742ZM89.918 29.8693C99.3242 32.4916 107.409 45.7451 111.325 63.5742H89.918V29.8693ZM89.918 70.4102H112.586C113.402 75.8382 113.844 81.5828 113.844 87.5C113.844 93.4172 113.401 99.1618 112.586 104.59H89.918V70.4102ZM89.918 145.131V111.422L111.325 111.426C107.409 129.255 99.3242 142.508 89.918 145.131ZM104.794 142.652C111.861 134.253 116.134 122.266 118.344 111.422H139.448C132.794 126.093 120.22 137.522 104.794 142.652ZM144.605 87.5C144.605 93.4452 143.706 99.1843 142.039 104.59H119.515C120.283 99.0883 120.68 93.3516 120.68 87.5C120.68 81.6484 120.283 75.9117 119.515 70.4102H142.039C143.706 75.8157 144.605 81.5548 144.605 87.5ZM118.344 63.5742C116.132 52.7297 111.858 40.7449 104.794 32.3477C120.219 37.4777 132.794 48.9074 139.448 63.5742H118.344Z" fill="#3A8BD6"/>
</g>
<defs>
<clipPath id="clip0">
<rect width="175" height="175" fill="white"/>
</clipPath>
</defs>
</svg>
